<?xml version="1.0" standalone="no"?>
<!DOCTYPE svg PUBLIC "-//W3C//DTD SVG 20010904//EN"
 "http://www.w3.org/TR/2001/REC-SVG-20010904/DTD/svg10.dtd">
<svg version="1.0" xmlns="http://www.w3.org/2000/svg"
 width="128.000000pt" height="128.000000pt" viewBox="0 0 128.000000 128.000000"
 preserveAspectRatio="xMidYMid meet">

<g transform="translate(0.000000,128.000000) scale(0.100000,-0.100000)"
fill="#000000" stroke="none">
<path d="M767 1220 c-20 -38 -38 -56 -72 -72 -25 -12 -45 -25 -45 -29 0 -3 20
-17 46 -30 33 -18 53 -38 76 -78 l31 -54 27 53 c22 44 36 58 80 80 l53 27 -54
31 c-40 23 -60 43 -78 76 -13 26 -27 46 -30 46 -3 0 -18 -23 -34 -50z m89 -85
l27 -18 -26 -14 c-15 -7 -33 -25 -40 -40 l-14 -26 -18 27 c-10 15 -30 33 -44
41 l-26 13 26 12 c14 6 34 25 44 42 l18 31 13 -25 c7 -14 25 -33 40 -43z"/>
<path d="M266 1204 c-25 -31 -46 -61 -46 -66 0 -6 15 -35 34 -66 29 -50 33
-64 29 -109 -5 -50 -6 -53 -49 -74 -68 -32 -140 -109 -177 -186 -29 -62 -32
-77 -32 -164 0 -90 2 -99 38 -171 43 -87 98 -142 186 -185 48 -24 70 -28 156
-30 l101 -2 44 -42 c24 -23 73 -56 109 -73 60 -28 75 -31 161 -31 77 0 104 5
145 23 73 34 123 71 162 121 29 38 31 46 18 54 -12 6 -21 1 -37 -18 -38 -49
-83 -85 -138 -113 -48 -24 -67 -27 -150 -27 -83 0 -102 3 -150 27 -75 37 -137
100 -173 178 -27 55 -31 76 -31 145 0 98 29 169 100 245 49 53 67 60 82 34 7
-12 -2 -27 -38 -60 -162 -151 -107 -427 100 -505 71 -27 184 -23 245 8 145 75
210 254 145 401 -28 66 -112 144 -176 166 -26 9 -71 16 -100 16 -51 0 -64 9
-64 42 0 18 150 3 203 -20 154 -69 244 -251 203 -413 -12 -44 -13 -66 -6 -73
27 -27 53 74 48 184 -4 70 -10 96 -35 145 -76 149 -231 237 -388 221 l-61 -6
-43 44 c-23 24 -64 53 -91 66 -47 22 -48 23 -52 74 -3 44 1 57 34 109 21 32
38 60 38 64 0 3 -21 32 -47 64 l-48 59 -101 0 -102 0 -46 -56z m80 -6 c-3 -13
-6 -26 -6 -30 0 -5 -14 -8 -31 -8 l-31 0 24 29 c28 36 53 41 44 9z m94 3 c17
-32 12 -41 -25 -41 -37 0 -38 2 -29 38 8 27 39 29 54 3z m77 -3 c29 -27 29
-38 -1 -38 -18 0 -27 8 -35 30 -12 37 2 40 36 8z m-177 -120 c6 -24 13 -51 16
-60 9 -30 -13 -20 -34 15 -11 19 -27 46 -37 60 l-17 27 30 0 c28 0 32 -4 42
-42z m104 -14 c-7 -31 -15 -58 -18 -61 -13 -14 -34 9 -40 44 -4 21 -9 46 -12
56 -5 14 1 17 39 17 l44 0 -13 -56z m75 -5 c-22 -33 -43 -59 -45 -57 -2 3 2
30 8 61 12 56 13 57 45 57 l34 0 -42 -61z m-11 -116 c3 -21 0 -23 -47 -23 -44
0 -51 -3 -51 -20 0 -18 7 -20 60 -20 106 0 213 -77 266 -193 25 -53 29 -75 29
-147 0 -72 -4 -94 -29 -147 -18 -39 -47 -80 -77 -108 -53 -49 -64 -53 -73 -28
-5 11 7 31 38 62 49 51 81 108 91 164 7 33 5 37 -14 37 -15 0 -21 -6 -21 -22
0 -35 -44 -120 -79 -153 -39 -36 -51 -25 -51 46 0 65 25 131 72 183 42 48 58
51 58 10 0 -18 5 -24 21 -24 19 0 21 4 14 37 -17 93 -92 185 -184 226 -103 47
-250 17 -334 -67 -58 -58 -80 -109 -85 -202 -4 -72 -1 -89 21 -137 49 -107
143 -173 263 -184 48 -4 67 -11 75 -24 22 -42 -118 -34 -215 12 -65 30 -132
99 -164 167 -23 49 -27 70 -27 152 0 81 4 103 26 150 47 99 163 190 244 190
28 0 35 4 35 20 0 15 -7 20 -25 20 -20 0 -25 5 -25 25 l0 26 93 -3 c87 -3 92
-4 95 -25z m-7 -148 c23 -9 58 -27 76 -41 l34 -26 -35 -26 c-49 -38 -82 -81
-114 -149 -24 -52 -27 -69 -27 -172 l0 -113 -51 5 c-178 18 -288 207 -219 373
17 42 81 111 119 131 70 36 147 42 217 18z m434 -159 c52 -24 102 -72 132
-129 27 -49 24 -179 -4 -233 -21 -40 -83 -102 -121 -123 -78 -42 -199 -33
-272 20 l-42 31 56 55 c106 105 148 254 110 386 -8 27 78 23 141 -7z"/>
<path d="M1070 991 c-18 -40 -33 -55 -77 -79 l-55 -29 54 -30 c39 -23 60 -43
78 -77 13 -25 27 -46 30 -46 3 0 16 21 29 46 19 34 39 54 79 77 l55 30 -55 28
c-43 22 -58 36 -73 68 -29 66 -39 67 -65 12z m45 -52 c4 -11 21 -29 38 -39
l30 -19 -26 -12 c-15 -7 -27 -15 -27 -18 0 -3 -7 -14 -15 -24 -13 -18 -16 -16
-53 21 l-40 40 24 11 c13 6 29 22 36 36 14 30 24 32 33 4z"/>
</g>
</svg>
