<?xml version="1.0" standalone="no"?>
<!DOCTYPE svg PUBLIC "-//W3C//DTD SVG 20010904//EN"
 "http://www.w3.org/TR/2001/REC-SVG-20010904/DTD/svg10.dtd">
<svg version="1.0" xmlns="http://www.w3.org/2000/svg"
 width="128.000000pt" height="128.000000pt" viewBox="0 0 128.000000 128.000000"
 preserveAspectRatio="xMidYMid meet">

<g transform="translate(0.000000,128.000000) scale(0.100000,-0.100000)"
fill="#000000" stroke="none">
<path d="M627 1214 c-4 -4 -7 -18 -7 -31 0 -18 -5 -23 -26 -23 -33 0 -30 -33
4 -38 18 -3 22 -10 22 -40 -1 -35 -9 -45 -140 -162 l-139 -125 -1 -67 c0 -69
10 -84 38 -56 9 9 12 -53 12 -280 l0 -292 -135 0 -135 0 2 202 3 202 109 41
c104 38 135 59 104 70 -23 8 -303 -100 -306 -118 -3 -12 4 -17 22 -17 l26 0 0
-189 0 -190 -37 -3 c-26 -2 -38 -8 -38 -18 0 -13 77 -15 635 -15 558 0 635 2
635 15 0 10 -12 16 -37 18 l-38 3 0 190 0 189 26 0 c18 0 25 5 22 17 -3 18
-283 126 -306 118 -31 -11 0 -32 104 -70 l109 -41 3 -202 2 -202 -135 0 -135
0 0 292 c0 227 3 289 12 280 28 -28 38 -13 38 56 l0 67 -140 125 c-130 117
-139 127 -140 162 0 30 4 37 22 40 33 4 37 38 4 38 -19 0 -25 6 -28 27 -3 26
-18 39 -31 27z m152 -327 c82 -74 131 -126 131 -138 0 -10 -3 -19 -7 -19 -5 0
-62 50 -128 110 -66 60 -126 110 -133 110 -8 0 -68 -48 -134 -107 -66 -60
-124 -109 -129 -111 -5 -2 -9 5 -9 16 0 19 257 264 272 259 4 -1 66 -55 137
-120z m71 -478 l0 -309 -45 0 -45 0 0 110 c0 125 -11 160 -60 185 -60 31 -137
10 -165 -45 -11 -21 -15 -60 -15 -140 l0 -110 -45 0 -45 0 0 309 0 309 106 96
105 97 105 -97 104 -96 0 -309z m-230 -174 l0 -135 -30 0 -30 0 0 112 c0 101
2 114 22 135 12 13 25 23 30 23 4 0 8 -61 8 -135z m77 113 c21 -20 23 -29 23
-135 l0 -113 -30 0 -30 0 0 135 c0 74 3 135 7 135 4 0 17 -10 30 -22z"/>
<path d="M544 705 c-42 -42 -33 -78 36 -148 l60 -62 60 62 c69 70 78 106 36
148 -20 20 -33 23 -96 23 -63 0 -76 -3 -96 -23z m174 -47 c3 -21 -7 -38 -37
-70 l-41 -43 -40 42 c-36 38 -51 79 -34 95 3 3 37 5 77 4 71 -1 72 -2 75 -28z"/>
<path d="M200 438 c-18 -20 -20 -33 -18 -118 l3 -95 68 -3 67 -3 0 104 c0 88
-3 106 -18 120 -27 24 -77 21 -102 -5z m78 -100 l3 -78 -31 0 -30 0 0 73 c0
80 4 89 35 85 18 -3 20 -11 23 -80z"/>
<path d="M977 442 c-14 -15 -17 -40 -17 -121 l0 -102 68 3 67 3 3 95 c2 85 0
98 -18 118 -26 28 -80 30 -103 4z m81 -104 l3 -78 -31 0 -30 0 0 81 0 80 28
-3 c27 -3 27 -4 30 -80z"/>
</g>
</svg>
