<?xml version="1.0" standalone="no"?>
<!DOCTYPE svg PUBLIC "-//W3C//DTD SVG 20010904//EN"
 "http://www.w3.org/TR/2001/REC-SVG-20010904/DTD/svg10.dtd">
<svg version="1.0" xmlns="http://www.w3.org/2000/svg"
 width="128.000000pt" height="128.000000pt" viewBox="0 0 128.000000 128.000000"
 preserveAspectRatio="xMidYMid meet">

<g transform="translate(0.000000,128.000000) scale(0.100000,-0.100000)"
fill="#000000" stroke="none">
<path d="M575 1267 c-38 -18 -60 -43 -80 -90 -20 -48 -19 -75 4 -121 l20 -38
-54 -52 c-87 -85 -109 -201 -49 -257 25 -24 28 -24 224 -24 196 0 199 0 224
24 35 33 41 77 21 147 -13 45 -28 68 -70 110 l-54 52 20 38 c10 21 19 50 19
64 0 36 -40 110 -72 133 -34 25 -113 32 -153 14z m122 -89 c50 -47 12 -138
-57 -138 -68 0 -105 87 -58 137 28 30 83 31 115 1z m21 -232 c59 -31 102 -94
102 -150 l0 -36 -180 0 -180 0 0 35 c0 57 43 119 105 153 28 16 121 15 153 -2z"/>
<path d="M313 1041 c-85 -67 -152 -173 -177 -279 -15 -67 -8 -92 29 -92 19 0
26 7 34 38 6 20 11 42 11 48 0 6 16 43 35 81 24 48 55 89 100 131 68 65 77 85
46 102 -26 14 -23 15 -78 -29z"/>
<path d="M888 1069 c-30 -17 -21 -36 47 -101 45 -42 76 -83 100 -131 19 -38
35 -75 35 -81 0 -6 5 -28 11 -48 8 -31 15 -38 34 -38 37 0 44 25 29 92 -25
106 -92 212 -177 279 -53 43 -54 43 -79 28z"/>
<path d="M190 578 c-33 -17 -51 -35 -67 -68 -28 -55 -29 -94 -3 -145 15 -30
17 -41 8 -44 -29 -9 -96 -91 -112 -137 -20 -59 -20 -97 -2 -133 24 -45 51 -51
251 -51 l185 0 32 29 c30 26 33 35 31 81 -2 87 -42 152 -132 217 -3 2 4 18 14
36 27 46 25 116 -5 160 -49 71 -127 93 -200 55z m125 -83 c33 -32 33 -78 0
-110 -52 -53 -135 -18 -135 56 0 71 85 105 135 54z m12 -230 c48 -20 71 -41
94 -87 23 -46 25 -94 3 -102 -20 -8 -308 -8 -328 0 -20 8 -21 65 -2 102 45 86
145 124 233 87z"/>
<path d="M973 589 c-75 -22 -124 -112 -103 -189 6 -21 15 -42 20 -45 19 -12 9
-30 -30 -58 -50 -36 -91 -118 -93 -187 -2 -46 1 -55 31 -81 l32 -29 185 0
c200 0 227 6 251 51 18 36 18 74 -2 133 -16 46 -83 128 -112 137 -9 3 -7 14 8
44 26 51 25 90 -2 145 -17 33 -35 51 -68 68 -47 24 -67 25 -117 11z m101 -90
c19 -15 26 -29 26 -57 0 -75 -83 -110 -135 -57 -73 72 28 178 109 114z m5
-229 c39 -11 86 -51 107 -92 19 -37 18 -94 -2 -102 -20 -8 -308 -8 -328 0 -33
13 -7 113 41 156 46 42 117 57 182 38z"/>
<path d="M531 521 c-11 -11 -27 -34 -36 -51 -15 -30 -15 -33 9 -74 26 -45 46
-59 70 -50 17 7 28 32 20 45 -3 5 17 9 45 9 37 0 49 -3 45 -13 -2 -7 2 -21 9
-31 20 -28 53 -12 83 40 l26 44 -26 44 c-26 45 -46 59 -70 50 -17 -7 -28 -32
-20 -45 3 -5 -17 -9 -45 -9 -39 0 -49 3 -45 14 5 14 -20 46 -37 46 -5 0 -18
-9 -28 -19z"/>
</g>
</svg>
