<?xml version="1.0" standalone="no"?>
<!DOCTYPE svg PUBLIC "-//W3C//DTD SVG 20010904//EN"
 "http://www.w3.org/TR/2001/REC-SVG-20010904/DTD/svg10.dtd">
<svg version="1.0" xmlns="http://www.w3.org/2000/svg"
 width="512.000000pt" height="512.000000pt" viewBox="0 0 512.000000 512.000000"
 preserveAspectRatio="xMidYMid meet">

<g transform="translate(0.000000,512.000000) scale(0.100000,-0.100000)"
fill="#000000" stroke="none">
<path d="M3091 4911 l-114 -208 -171 -94 c-94 -51 -188 -103 -208 -114 l-37
-21 208 -113 207 -114 114 -208 114 -208 16 27 c9 15 60 108 114 207 l98 181
209 114 209 113 -28 17 c-15 9 -108 60 -208 115 l-181 98 -69 126 c-37 69 -89
163 -114 208 l-46 82 -113 -208z m205 -266 c25 -47 36 -56 136 -109 59 -33
106 -61 103 -64 -2 -3 -51 -30 -107 -61 l-103 -56 -50 -90 c-28 -49 -55 -98
-61 -108 -8 -15 -19 -1 -70 90 l-59 108 -90 50 c-50 28 -98 55 -107 60 -15 9
0 21 90 69 l108 59 59 109 59 109 33 -58 c18 -32 45 -81 59 -108z"/>
<path d="M1057 4804 l-208 -245 169 -267 c154 -244 166 -267 145 -270 -22 -3
-23 -4 -25 -188 l-3 -185 -100 -43 c-429 -183 -766 -562 -893 -1001 -49 -168
-57 -232 -57 -445 0 -230 11 -306 70 -486 129 -394 410 -725 774 -912 64 -33
150 -72 191 -87 258 -92 538 -115 809 -68 l93 17 51 -60 c606 -709 1669 -754
2322 -98 93 93 234 274 235 301 0 6 -26 27 -57 47 -54 33 -59 34 -71 18 -7 -9
-40 -55 -74 -102 -202 -280 -518 -480 -878 -557 -120 -25 -420 -25 -540 0
-524 112 -930 473 -1089 969 -168 526 -13 1113 392 1483 70 64 215 171 222
164 10 -11 95 -154 95 -161 0 -4 -28 -26 -61 -49 -205 -139 -385 -387 -464
-639 -153 -491 22 -1033 433 -1343 227 -170 458 -247 742 -247 335 0 626 118
860 349 93 92 142 155 208 266 170 289 209 669 102 996 -118 360 -420 664
-775 781 -152 50 -228 61 -411 62 l-170 0 -46 88 c-26 48 -43 88 -40 88 4 0
34 5 67 10 95 16 332 13 442 -5 509 -86 939 -450 1112 -938 55 -156 74 -272
75 -457 1 -217 -26 -367 -96 -538 -17 -40 -29 -75 -27 -76 2 -2 32 -18 66 -35
l63 -31 16 37 c198 461 168 986 -82 1417 -228 392 -593 656 -1051 758 -84 19
-128 22 -308 22 -156 0 -230 -4 -288 -17 l-77 -16 -143 143 c-91 91 -174 164
-233 204 -86 57 -271 155 -342 180 l-32 11 0 185 0 185 -25 3 c-23 3 -14 18
144 270 l169 267 -180 213 c-99 117 -194 228 -211 246 l-31 32 -385 0 -386 0
-208 -246z m326 -31 c-24 -71 -48 -132 -52 -136 -4 -4 -56 -6 -116 -5 l-108 3
113 133 112 132 48 0 48 0 -45 -127z m387 0 c25 -70 47 -130 48 -135 2 -4 -71
-8 -163 -8 -92 0 -165 4 -163 8 2 5 23 65 48 135 l44 127 71 0 71 0 44 -127z
m300 15 c52 -62 103 -123 113 -135 l19 -24 -113 3 -113 3 -43 120 c-23 66 -43
126 -43 133 0 8 15 12 43 12 42 0 44 -2 137 -112z m-692 -530 c29 -123 53
-226 52 -230 0 -5 -15 -8 -34 -8 -33 0 -36 4 -175 225 -77 124 -141 228 -141
230 0 3 55 5 123 5 l123 0 52 -222z m452 215 c0 -5 -24 -107 -53 -228 l-53
-220 -69 0 -69 0 -53 220 c-29 121 -53 223 -53 228 0 4 79 7 175 7 96 0 175
-3 175 -7z m378 -31 c-13 -21 -77 -125 -143 -230 -116 -185 -121 -192 -152
-192 -18 0 -33 3 -33 8 -1 4 23 107 52 230 l52 222 124 0 123 0 -23 -38z
m-188 -672 l0 -100 -190 0 -190 0 0 -75 0 -75 225 0 c215 0 227 -1 291 -25
178 -67 368 -190 507 -330 618 -618 539 -1638 -168 -2158 l-90 -67 -17 23
c-27 34 -80 137 -76 146 2 5 39 36 84 69 252 189 423 476 474 794 17 105 15
108 -68 108 l-69 0 -7 -65 c-14 -140 -88 -336 -176 -465 -72 -106 -261 -290
-298 -290 -20 0 -45 145 -50 280 -8 256 61 483 209 679 94 126 264 277 280
249 10 -19 39 -165 39 -198 0 -16 4 -31 9 -34 4 -3 39 -3 76 1 l67 6 -7 66
c-18 172 -93 370 -198 529 -182 273 -457 457 -790 529 -109 24 -369 23 -475
-1 -391 -88 -689 -320 -862 -671 -133 -270 -162 -565 -85 -855 107 -396 410
-718 801 -849 141 -48 248 -63 421 -59 l151 2 46 -86 c25 -48 42 -89 38 -92
-25 -15 -221 -28 -336 -23 -597 29 -1112 426 -1294 997 -63 199 -82 460 -46
667 75 445 364 833 773 1038 153 77 185 85 338 85 l133 0 0 75 0 75 -105 0
-105 0 0 93 c0 52 3 97 7 100 3 4 170 7 370 7 l363 0 0 -100z m-98 -563 c112
-29 238 -86 329 -148 77 -51 181 -140 177 -150 -2 -4 -41 -35 -88 -69 -47 -35
-128 -106 -180 -159 -409 -416 -553 -1005 -384 -1578 5 -20 2 -21 -58 -25
-474 -30 -923 266 -1083 715 -100 279 -82 576 50 842 63 129 127 216 224 308
154 145 346 243 554 283 114 22 338 12 459 -19z m1531 -562 c243 -42 416 -133
593 -309 146 -147 230 -292 286 -496 20 -75 23 -107 23 -265 -1 -154 -4 -192
-23 -262 -122 -448 -482 -760 -941 -813 -185 -22 -398 15 -576 99 -87 41 -231
140 -284 195 l-33 34 59 40 c262 179 485 477 588 786 98 295 110 618 32 908
-21 77 -22 88 -8 91 38 11 206 6 284 -8z"/>
<path d="M4281 3963 l-113 -208 -204 -110 c-112 -60 -204 -112 -204 -115 0 -3
91 -55 201 -115 163 -89 206 -117 224 -145 12 -19 63 -113 115 -208 51 -95 97
-169 101 -165 4 5 57 97 117 206 l109 198 207 113 207 114 -33 19 c-18 11
-112 63 -208 116 l-175 96 -105 192 c-58 105 -110 198 -115 206 -8 10 -38 -37
-124 -194z m187 -226 l47 -88 102 -55 c57 -31 105 -58 107 -62 2 -4 -44 -33
-103 -66 l-107 -58 -52 -99 c-29 -54 -57 -101 -62 -104 -4 -3 -34 42 -64 99
l-56 105 -105 58 c-58 32 -105 60 -105 63 0 3 46 30 103 61 l102 55 60 108
c68 123 58 125 133 -17z"/>
</g>
</svg>
